<svg width="361" height="113" viewBox="0 0 361 113" fill="none" xmlns="http://www.w3.org/2000/svg">
<path d="M108.92 42.16L105.704 35.44H105.56V58H98.696V24.496H106.664L115.832 40.336L119.048 47.056H119.192V24.496H126.056V58H118.088L108.92 42.16ZM143.27 58.576C141.414 58.576 139.75 58.272 138.278 57.664C136.838 57.056 135.606 56.176 134.582 55.024C133.59 53.872 132.822 52.48 132.278 50.848C131.734 49.216 131.462 47.392 131.462 45.376C131.462 43.36 131.734 41.536 132.278 39.904C132.822 38.272 133.59 36.896 134.582 35.776C135.606 34.624 136.838 33.744 138.278 33.136C139.75 32.528 141.414 32.224 143.27 32.224C145.126 32.224 146.774 32.528 148.214 33.136C149.686 33.744 150.918 34.624 151.91 35.776C152.934 36.896 153.718 38.272 154.262 39.904C154.806 41.536 155.078 43.36 155.078 45.376C155.078 47.392 154.806 49.216 154.262 50.848C153.718 52.48 152.934 53.872 151.91 55.024C150.918 56.176 149.686 57.056 148.214 57.664C146.774 58.272 145.126 58.576 143.27 58.576ZM143.27 52.96C144.678 52.96 145.766 52.528 146.534 51.664C147.302 50.8 147.686 49.568 147.686 47.968V42.832C147.686 41.232 147.302 40 146.534 39.136C145.766 38.272 144.678 37.84 143.27 37.84C141.862 37.84 140.774 38.272 140.006 39.136C139.238 40 138.854 41.232 138.854 42.832V47.968C138.854 49.568 139.238 50.8 140.006 51.664C140.774 52.528 141.862 52.96 143.27 52.96ZM168.691 58C166.227 58 164.355 57.376 163.075 56.128C161.827 54.88 161.203 53.056 161.203 50.656V38.32H157.651V32.8H159.427C160.387 32.8 161.043 32.576 161.395 32.128C161.747 31.648 161.923 30.976 161.923 30.112V25.984H168.307V32.8H173.299V38.32H168.307V52.48H172.915V58H168.691ZM186.832 58C184.368 58 182.496 57.376 181.216 56.128C179.968 54.88 179.344 53.056 179.344 50.656V38.32H175.792V32.8H177.568C178.528 32.8 179.184 32.576 179.536 32.128C179.888 31.648 180.064 30.976 180.064 30.112V25.984H186.448V32.8H191.44V38.32H186.448V52.48H191.056V58H186.832ZM199.927 30.112C198.487 30.112 197.431 29.792 196.759 29.152C196.119 28.48 195.799 27.632 195.799 26.608V25.552C195.799 24.528 196.119 23.696 196.759 23.056C197.431 22.384 198.487 22.048 199.927 22.048C201.367 22.048 202.407 22.384 203.047 23.056C203.719 23.696 204.055 24.528 204.055 25.552V26.608C204.055 27.632 203.719 28.48 203.047 29.152C202.407 29.792 201.367 30.112 199.927 30.112ZM196.375 32.8H203.479V58H196.375V32.8ZM210.109 58V32.8H217.213V37.072H217.501C217.949 35.76 218.733 34.624 219.853 33.664C220.973 32.704 222.525 32.224 224.509 32.224C227.101 32.224 229.053 33.088 230.365 34.816C231.709 36.544 232.381 39.008 232.381 42.208V58H225.277V42.784C225.277 41.152 225.021 39.952 224.509 39.184C223.997 38.384 223.085 37.984 221.773 37.984C221.197 37.984 220.637 38.064 220.093 38.224C219.549 38.352 219.053 38.576 218.605 38.896C218.189 39.216 217.853 39.616 217.597 40.096C217.341 40.544 217.213 41.072 217.213 41.68V58H210.109ZM262.031 59.824C262.031 61.168 261.791 62.352 261.311 63.376C260.863 64.4 260.111 65.264 259.055 65.968C257.999 66.704 256.591 67.248 254.831 67.6C253.103 67.984 250.959 68.176 248.399 68.176C246.223 68.176 244.367 68.032 242.831 67.744C241.327 67.488 240.095 67.104 239.135 66.592C238.207 66.112 237.519 65.504 237.071 64.768C236.655 64.064 236.447 63.248 236.447 62.32C236.447 60.912 236.863 59.808 237.695 59.008C238.527 58.208 239.679 57.712 241.151 57.52V56.992C239.935 56.768 239.023 56.256 238.415 55.456C237.807 54.624 237.503 53.664 237.503 52.576C237.503 51.904 237.631 51.328 237.887 50.848C238.175 50.336 238.527 49.904 238.943 49.552C239.391 49.168 239.903 48.864 240.479 48.64C241.055 48.416 241.631 48.24 242.207 48.112V47.92C240.671 47.216 239.535 46.256 238.799 45.04C238.063 43.792 237.695 42.352 237.695 40.72C237.695 38.16 238.575 36.112 240.335 34.576C242.127 33.008 244.847 32.224 248.495 32.224C250.159 32.224 251.583 32.384 252.767 32.704V31.744C252.767 30.4 253.087 29.44 253.727 28.864C254.399 28.256 255.343 27.952 256.559 27.952H260.543V33.232H254.975V33.52C256.447 34.224 257.535 35.2 258.239 36.448C258.943 37.664 259.295 39.088 259.295 40.72C259.295 43.248 258.399 45.28 256.607 46.816C254.847 48.32 252.143 49.072 248.495 49.072C246.863 49.072 245.375 48.896 244.031 48.544C243.295 49.024 242.927 49.696 242.927 50.56C242.927 51.168 243.151 51.648 243.599 52C244.079 52.32 244.863 52.48 245.951 52.48H253.247C256.319 52.48 258.543 53.12 259.919 54.4C261.327 55.68 262.031 57.488 262.031 59.824ZM255.359 60.784C255.359 60.048 255.071 59.488 254.495 59.104C253.919 58.72 252.911 58.528 251.471 58.528H242.831C242.511 58.848 242.271 59.2 242.111 59.584C241.983 60 241.919 60.4 241.919 60.784C241.919 61.712 242.319 62.384 243.119 62.8C243.919 63.248 245.279 63.472 247.199 63.472H250.079C251.999 63.472 253.359 63.248 254.159 62.8C254.959 62.384 255.359 61.712 255.359 60.784ZM248.495 44.416C249.903 44.416 250.943 44.128 251.615 43.552C252.319 42.944 252.671 42.08 252.671 40.96V40.384C252.671 39.264 252.319 38.416 251.615 37.84C250.943 37.232 249.903 36.928 248.495 36.928C247.087 36.928 246.031 37.232 245.327 37.84C244.655 38.416 244.319 39.264 244.319 40.384V40.96C244.319 42.08 244.655 42.944 245.327 43.552C246.031 44.128 247.087 44.416 248.495 44.416ZM265.187 22.48H272.291V37.072H272.579C273.027 35.76 273.811 34.624 274.931 33.664C276.051 32.704 277.603 32.224 279.587 32.224C282.179 32.224 284.131 33.088 285.443 34.816C286.787 36.544 287.459 39.008 287.459 42.208V58H280.355V42.784C280.355 41.152 280.099 39.952 279.587 39.184C279.075 38.384 278.163 37.984 276.851 37.984C276.275 37.984 275.715 38.064 275.171 38.224C274.627 38.352 274.131 38.576 273.683 38.896C273.267 39.216 272.931 39.616 272.675 40.096C272.419 40.544 272.291 41.072 272.291 41.68V58H265.187V22.48ZM312.405 58C311.125 58 310.053 57.6 309.189 56.8C308.357 56 307.829 54.928 307.605 53.584H307.317C306.933 55.216 306.085 56.464 304.773 57.328C303.461 58.16 301.845 58.576 299.925 58.576C297.397 58.576 295.461 57.904 294.117 56.56C292.773 55.216 292.101 53.44 292.101 51.232C292.101 48.576 293.061 46.608 294.981 45.328C296.933 44.016 299.573 43.36 302.901 43.36H306.885V41.776C306.885 40.56 306.565 39.6 305.925 38.896C305.285 38.16 304.213 37.792 302.709 37.792C301.301 37.792 300.181 38.096 299.349 38.704C298.517 39.312 297.829 40 297.285 40.768L293.061 37.024C294.085 35.52 295.365 34.352 296.901 33.52C298.469 32.656 300.581 32.224 303.237 32.224C306.821 32.224 309.509 33.008 311.301 34.576C313.093 36.144 313.989 38.432 313.989 41.44V52.48H316.341V58H312.405ZM302.565 53.632C303.749 53.632 304.757 53.376 305.589 52.864C306.453 52.352 306.885 51.52 306.885 50.368V47.392H303.429C300.645 47.392 299.253 48.336 299.253 50.224V50.944C299.253 51.872 299.541 52.56 300.117 53.008C300.693 53.424 301.509 53.632 302.565 53.632ZM321.109 58V32.8H328.213V37.072H328.501C328.949 35.728 329.717 34.592 330.805 33.664C331.893 32.704 333.381 32.224 335.269 32.224C336.997 32.224 338.469 32.656 339.685 33.52C340.901 34.384 341.781 35.648 342.325 37.312H342.469C342.693 36.608 343.029 35.952 343.477 35.344C343.957 34.704 344.533 34.16 345.205 33.712C345.877 33.264 346.629 32.912 347.461 32.656C348.293 32.368 349.189 32.224 350.149 32.224C352.581 32.224 354.437 33.088 355.717 34.816C357.029 36.544 357.685 39.008 357.685 42.208V58H350.581V42.784C350.581 39.584 349.429 37.984 347.125 37.984C346.069 37.984 345.109 38.288 344.245 38.896C343.381 39.504 342.949 40.432 342.949 41.68V58H335.845V42.784C335.845 39.584 334.693 37.984 332.389 37.984C331.877 37.984 331.365 38.064 330.853 38.224C330.373 38.352 329.925 38.576 329.509 38.896C329.125 39.216 328.805 39.616 328.549 40.096C328.325 40.544 328.213 41.072 328.213 41.68V58H321.109ZM98.696 106V72.496H120.92V78.976H105.992V85.84H118.712V92.272H105.992V106H98.696ZM135.067 106.576C133.211 106.576 131.547 106.272 130.075 105.664C128.635 105.056 127.403 104.176 126.379 103.024C125.387 101.872 124.619 100.48 124.075 98.848C123.531 97.216 123.259 95.392 123.259 93.376C123.259 91.36 123.531 89.536 124.075 87.904C124.619 86.272 125.387 84.896 126.379 83.776C127.403 82.624 128.635 81.744 130.075 81.136C131.547 80.528 133.211 80.224 135.067 80.224C136.923 80.224 138.571 80.528 140.011 81.136C141.483 81.744 142.715 82.624 143.707 83.776C144.731 84.896 145.515 86.272 146.059 87.904C146.603 89.536 146.875 91.36 146.875 93.376C146.875 95.392 146.603 97.216 146.059 98.848C145.515 100.48 144.731 101.872 143.707 103.024C142.715 104.176 141.483 105.056 140.011 105.664C138.571 106.272 136.923 106.576 135.067 106.576ZM135.067 100.96C136.475 100.96 137.563 100.528 138.331 99.664C139.099 98.8 139.483 97.568 139.483 95.968V90.832C139.483 89.232 139.099 88 138.331 87.136C137.563 86.272 136.475 85.84 135.067 85.84C133.659 85.84 132.571 86.272 131.803 87.136C131.035 88 130.651 89.232 130.651 90.832V95.968C130.651 97.568 131.035 98.8 131.803 99.664C132.571 100.528 133.659 100.96 135.067 100.96ZM162.161 106.576C160.305 106.576 158.641 106.272 157.169 105.664C155.729 105.056 154.497 104.176 153.473 103.024C152.481 101.872 151.713 100.48 151.169 98.848C150.625 97.216 150.353 95.392 150.353 93.376C150.353 91.36 150.625 89.536 151.169 87.904C151.713 86.272 152.481 84.896 153.473 83.776C154.497 82.624 155.729 81.744 157.169 81.136C158.641 80.528 160.305 80.224 162.161 80.224C164.017 80.224 165.665 80.528 167.105 81.136C168.577 81.744 169.809 82.624 170.801 83.776C171.825 84.896 172.609 86.272 173.153 87.904C173.697 89.536 173.969 91.36 173.969 93.376C173.969 95.392 173.697 97.216 173.153 98.848C172.609 100.48 171.825 101.872 170.801 103.024C169.809 104.176 168.577 105.056 167.105 105.664C165.665 106.272 164.017 106.576 162.161 106.576ZM162.161 100.96C163.569 100.96 164.657 100.528 165.425 99.664C166.193 98.8 166.577 97.568 166.577 95.968V90.832C166.577 89.232 166.193 88 165.425 87.136C164.657 86.272 163.569 85.84 162.161 85.84C160.753 85.84 159.665 86.272 158.897 87.136C158.129 88 157.745 89.232 157.745 90.832V95.968C157.745 97.568 158.129 98.8 158.897 99.664C159.665 100.528 160.753 100.96 162.161 100.96ZM194.487 101.776H194.247C194.055 102.448 193.751 103.088 193.335 103.696C192.919 104.272 192.407 104.784 191.799 105.232C191.223 105.648 190.551 105.968 189.783 106.192C189.047 106.448 188.279 106.576 187.479 106.576C184.279 106.576 181.863 105.456 180.231 103.216C178.599 100.944 177.783 97.664 177.783 93.376C177.783 89.088 178.599 85.824 180.231 83.584C181.863 81.344 184.279 80.224 187.479 80.224C189.111 80.224 190.551 80.672 191.799 81.568C193.079 82.464 193.895 83.616 194.247 85.024H194.487V70.48H201.591V106H194.487V101.776ZM189.831 100.816C191.175 100.816 192.279 100.496 193.143 99.856C194.039 99.184 194.487 98.272 194.487 97.12V89.68C194.487 88.528 194.039 87.632 193.143 86.992C192.279 86.32 191.175 85.984 189.831 85.984C188.487 85.984 187.367 86.464 186.471 87.424C185.607 88.352 185.175 89.616 185.175 91.216V95.584C185.175 97.184 185.607 98.464 186.471 99.424C187.367 100.352 188.487 100.816 189.831 100.816ZM219.962 72.496H236.234C239.018 72.496 241.178 73.28 242.714 74.848C244.282 76.416 245.066 78.496 245.066 81.088C245.066 82.368 244.89 83.456 244.538 84.352C244.218 85.248 243.77 85.984 243.194 86.56C242.65 87.136 241.994 87.568 241.226 87.856C240.49 88.112 239.69 88.256 238.826 88.288V88.576C239.626 88.576 240.458 88.72 241.322 89.008C242.218 89.296 243.034 89.76 243.77 90.4C244.506 91.008 245.114 91.808 245.594 92.8C246.106 93.792 246.362 95.008 246.362 96.448C246.362 97.76 246.138 99.008 245.69 100.192C245.274 101.344 244.682 102.352 243.914 103.216C243.146 104.08 242.234 104.768 241.178 105.28C240.122 105.76 238.97 106 237.722 106H219.962V72.496ZM227.258 99.856H235.658C236.618 99.856 237.37 99.6 237.914 99.088C238.49 98.544 238.778 97.792 238.778 96.832V95.2C238.778 94.24 238.49 93.504 237.914 92.992C237.37 92.448 236.618 92.176 235.658 92.176H227.258V99.856ZM227.258 86.224H234.506C235.466 86.224 236.218 85.952 236.762 85.408C237.306 84.864 237.578 84.112 237.578 83.152V81.712C237.578 80.752 237.306 80 236.762 79.456C236.218 78.912 235.466 78.64 234.506 78.64H227.258V86.224ZM270.217 106C268.937 106 267.865 105.6 267.001 104.8C266.169 104 265.641 102.928 265.417 101.584H265.129C264.745 103.216 263.897 104.464 262.585 105.328C261.273 106.16 259.657 106.576 257.737 106.576C255.209 106.576 253.273 105.904 251.929 104.56C250.585 103.216 249.913 101.44 249.913 99.232C249.913 96.576 250.873 94.608 252.793 93.328C254.745 92.016 257.385 91.36 260.713 91.36H264.697V89.776C264.697 88.56 264.377 87.6 263.737 86.896C263.097 86.16 262.025 85.792 260.521 85.792C259.113 85.792 257.993 86.096 257.161 86.704C256.329 87.312 255.641 88 255.097 88.768L250.873 85.024C251.897 83.52 253.177 82.352 254.713 81.52C256.281 80.656 258.393 80.224 261.049 80.224C264.633 80.224 267.321 81.008 269.113 82.576C270.905 84.144 271.801 86.432 271.801 89.44V100.48H274.153V106H270.217ZM260.377 101.632C261.561 101.632 262.569 101.376 263.401 100.864C264.265 100.352 264.697 99.52 264.697 98.368V95.392H261.241C258.457 95.392 257.065 96.336 257.065 98.224V98.944C257.065 99.872 257.353 100.56 257.929 101.008C258.505 101.424 259.321 101.632 260.377 101.632ZM278.921 106V80.8H286.025V85.072H286.313C286.761 83.76 287.545 82.624 288.665 81.664C289.785 80.704 291.337 80.224 293.321 80.224C295.913 80.224 297.865 81.088 299.177 82.816C300.521 84.544 301.193 87.008 301.193 90.208V106H294.089V90.784C294.089 89.152 293.833 87.952 293.321 87.184C292.809 86.384 291.897 85.984 290.585 85.984C290.009 85.984 289.449 86.064 288.905 86.224C288.361 86.352 287.865 86.576 287.417 86.896C287.001 87.216 286.665 87.616 286.409 88.096C286.153 88.544 286.025 89.072 286.025 89.68V106H278.921ZM307.515 70.48H314.619V91.456H314.907L318.027 86.8L323.067 80.8H330.939L322.539 90.448L331.899 106H323.451L317.787 95.344L314.619 98.896V106H307.515V70.48Z" fill="white"/>
<path d="M57.6013 23.3096V29.2537H51.7249V23.3096H42.5698V15.6926L59.0674 7.58679L42.5698 2.11463V0H36.4268V23.3096H27.2717V29.2537H21.4752V23.3096H0V48.4315H6.3605V106H72.6395V48.4315H79V23.3096H57.6013ZM49.107 99.9265H29.893V85.6364C29.893 80.3978 34.203 76.1366 39.5 76.1366C44.797 76.1366 49.107 80.3978 49.107 85.6364V99.9265ZM66.4948 99.9265H55.2501V85.6364C55.2501 77.0486 48.1862 70.0615 39.5 70.0615C30.8138 70.0615 23.7499 77.0486 23.7499 85.6364V99.9265H12.5035V48.4315H66.4948V99.9265ZM72.8553 42.3563H6.14305V29.3847H15.3338V35.3289H33.4164V29.3847H45.5836V35.3289H63.7426V29.3847H72.8536V42.3563H72.8553ZM28.1738 55.2859H20.76V61.3611H28.1738V55.2859V55.2859ZM43.2086 55.2859H35.7931V61.3611H43.2086V55.2859ZM58.2417 55.2859H50.8262V61.3611H58.2417V55.2859Z" fill="white"/>
</svg>
