<svg width="348" height="62" viewBox="0 0 348 62" fill="none" xmlns="http://www.w3.org/2000/svg">
<path d="M84.7267 42.2523C85.0949 42.2332 85.4147 42.2236 85.686 42.2236C85.9573 42.2236 86.2092 42.2332 86.4418 42.2523C86.6937 42.2523 86.9456 42.2714 87.1975 42.3097C87.4688 42.348 87.7983 42.3863 88.1859 42.4246C88.2828 42.9796 88.3603 43.4869 88.4184 43.9462C88.4765 44.3865 88.5347 44.8363 88.5928 45.2957C88.651 45.755 88.7091 46.2431 88.7672 46.7599C88.8254 47.2576 88.9029 47.8509 88.9998 48.54C89.6587 48.942 90.3369 49.3248 91.0346 49.6885C91.7516 50.0521 92.4977 50.368 93.2728 50.6359C94.0674 50.9039 94.9007 51.124 95.7727 51.2963C96.6448 51.4494 97.5944 51.526 98.6214 51.526C99.8811 51.526 100.976 51.3633 101.906 51.0379C102.836 50.7125 103.602 50.2627 104.203 49.6885C104.803 49.0951 105.249 48.3773 105.54 47.5351C105.83 46.6929 105.976 45.755 105.976 44.7214C105.976 44.2238 105.956 43.7548 105.918 43.3146C105.879 42.8552 105.792 42.415 105.656 41.9939C105.52 41.5728 105.327 41.1708 105.075 40.788C104.823 40.4052 104.484 40.032 104.057 39.6683C102.914 38.7113 101.712 37.8595 100.453 37.113C99.1931 36.3665 97.9044 35.6487 96.5867 34.9597C95.2883 34.2706 93.9802 33.5816 92.6624 32.8925C91.3446 32.1843 90.0559 31.3995 88.7963 30.5382C88.118 30.0597 87.5076 29.5811 86.965 29.1026C86.4418 28.605 85.9863 28.0595 85.5988 27.4661C85.2306 26.8536 84.9496 26.1741 84.7558 25.4276C84.562 24.662 84.4651 23.7719 84.4651 22.7575C84.4651 20.8817 84.7364 19.3026 85.279 18.0202C85.8216 16.7186 86.5774 15.6276 87.5464 14.7471C88.7285 13.6561 90.0947 12.8905 91.645 12.4502C93.2147 11.9908 95.0363 11.7611 97.1099 11.7611C98.2145 11.7611 99.3482 11.809 100.511 11.9047C101.693 12.0004 102.836 12.144 103.941 12.3354C105.065 12.5076 106.121 12.7182 107.109 12.967C108.117 13.2158 109.018 13.4838 109.813 13.7709C109.677 15.3213 109.512 16.8813 109.319 18.4508C109.144 20.0204 108.921 21.5038 108.65 22.901C108.243 22.9393 107.894 22.968 107.604 22.9872C107.313 22.9872 107.042 22.9872 106.79 22.9872C106.557 22.968 106.305 22.9489 106.034 22.9298C105.782 22.9106 105.482 22.8723 105.133 22.8149L104.668 17.1301C103.389 16.4602 102.052 15.953 100.656 15.6084C99.261 15.2448 97.885 15.0629 96.5285 15.0629C95.4627 15.0629 94.484 15.1873 93.5926 15.4362C92.7205 15.685 91.9648 16.0678 91.3253 16.5846C90.6858 17.0823 90.1916 17.7235 89.8428 18.5082C89.4939 19.2739 89.3195 20.1926 89.3195 21.2645C89.3195 22.0301 89.4164 22.7192 89.6102 23.3317C89.804 23.9442 90.0947 24.5184 90.4823 25.0544C90.8892 25.5712 91.4028 26.0593 92.0229 26.5186C92.643 26.978 93.3794 27.4374 94.2321 27.8968L104.261 33.4667C105.947 34.3855 107.245 35.2946 108.156 36.1943C109.086 37.0939 109.764 37.9935 110.191 38.8931C110.636 39.7927 110.898 40.7019 110.976 41.6206C111.072 42.5203 111.121 43.4486 111.121 44.4056C111.121 45.4966 110.985 46.492 110.714 47.3916C110.462 48.272 110.104 49.076 109.638 49.8033C109.173 50.5115 108.631 51.1432 108.011 51.6982C107.39 52.2342 106.732 52.6935 106.034 53.0764C105.22 53.5166 104.377 53.8611 103.505 54.11C102.652 54.3588 101.809 54.5406 100.976 54.6555C100.143 54.7895 99.3579 54.866 98.6214 54.8852C97.885 54.9234 97.2455 54.9426 96.7029 54.9426C95.5789 54.9426 94.3871 54.8277 93.1275 54.598C91.8679 54.3875 90.6567 54.11 89.4939 53.7654C88.3312 53.4209 87.2654 53.0477 86.2964 52.6457C85.3275 52.2246 84.562 51.8226 84 51.4398L84.7267 42.2523Z" fill="white"/>
<path d="M117.196 51.9279C117.758 51.7365 118.427 51.5642 119.202 51.4111C119.996 51.258 120.839 51.1144 121.731 50.9805V11.9621H116.702L116.382 9.49298C116.615 9.39727 117.002 9.27286 117.545 9.11973C118.088 8.94746 118.688 8.78477 119.347 8.63164C120.006 8.45938 120.675 8.31582 121.353 8.20098C122.051 8.06699 122.68 8 123.242 8C124.056 8 124.686 8.10527 125.132 8.31582C125.578 8.52637 125.907 8.79434 126.12 9.11973C126.353 9.42598 126.488 9.76094 126.527 10.1246C126.585 10.4883 126.614 10.8137 126.614 11.1008V29.562C128.397 28.2987 130.083 27.3991 131.672 26.8632C133.281 26.3272 134.889 26.0593 136.498 26.0593C138.029 26.0593 139.308 26.1932 140.335 26.4612C141.381 26.7292 142.214 27.2077 142.835 27.8968C143.474 28.5858 143.93 29.5333 144.201 30.7392C144.472 31.9259 144.608 33.4476 144.608 35.3042V51.0953L149.142 51.9279C149.239 52.2342 149.249 52.6074 149.172 53.0477C149.113 53.4879 149.017 53.8611 148.881 54.1674H136.033L135.829 51.9279C136.333 51.7557 136.943 51.593 137.66 51.4398C138.377 51.2867 139.065 51.1527 139.724 51.0379V35.5913C139.724 34.5003 139.647 33.5911 139.492 32.8638C139.356 32.1364 139.114 31.5622 138.765 31.1411C138.436 30.7009 137.99 30.3946 137.428 30.2224C136.866 30.031 136.168 29.9352 135.335 29.9352C133.823 29.9352 132.351 30.0788 130.917 30.3659C129.502 30.6339 128.068 31.1028 126.614 31.7728V50.9805L131.236 51.9279C131.294 52.2725 131.294 52.6553 131.236 53.0764C131.178 53.4975 131.072 53.8611 130.917 54.1674H117.487L117.196 51.9279Z" fill="white"/>
<path d="M153.706 41.8216C153.687 39.0271 153.968 36.6345 154.549 34.6439C155.15 32.6532 155.993 31.0263 157.078 29.763C158.163 28.4806 159.481 27.5427 161.031 26.9493C162.601 26.3559 164.355 26.0593 166.293 26.0593C168.405 26.0593 170.14 26.3081 171.496 26.8057C172.853 27.2843 173.919 28.0499 174.694 29.1026C175.469 30.1362 176.002 31.4665 176.292 33.0935C176.603 34.7204 176.748 36.6728 176.728 38.9505L158.706 39.0941C158.706 40.4531 158.725 41.6972 158.764 42.8265C158.822 43.9558 158.948 44.9798 159.142 45.8986C159.355 46.7982 159.656 47.5925 160.043 48.2816C160.431 48.9515 160.964 49.5162 161.642 49.9756C162.34 50.4158 163.192 50.7508 164.2 50.9805C165.227 51.2101 166.467 51.325 167.921 51.325C168.657 51.325 169.452 51.258 170.304 51.124C171.176 50.99 171.99 50.8369 172.746 50.6646C173.521 50.4924 174.18 50.3297 174.723 50.1765C175.285 50.0043 175.643 49.8894 175.798 49.832L176.787 52.2725C176.651 52.3682 176.302 52.5691 175.74 52.8754C175.178 53.1625 174.442 53.4687 173.531 53.7941C172.64 54.1004 171.583 54.3779 170.362 54.6268C169.142 54.8756 167.804 55 166.351 55C164.549 55 162.872 54.8373 161.322 54.5119C159.791 54.2057 158.464 53.5836 157.34 52.6457C156.216 51.7078 155.334 50.3775 154.695 48.6549C154.055 46.9322 153.726 44.6545 153.706 41.8216ZM171.729 35.8497C171.69 34.2228 171.477 32.9499 171.089 32.0312C170.721 31.1124 170.256 30.4329 169.694 29.9927C169.151 29.5333 168.56 29.2558 167.921 29.16C167.281 29.0452 166.671 28.9878 166.089 28.9878C164.83 28.9878 163.764 29.1313 162.892 29.4184C162.039 29.6864 161.332 30.1171 160.77 30.7104C160.208 31.3038 159.782 32.0694 159.491 33.0073C159.2 33.9261 158.997 35.0267 158.88 36.3091L171.729 35.8497Z" fill="white"/>
<path d="M182.368 51.9279C183.104 51.6791 183.879 51.4973 184.693 51.3824C185.527 51.2484 186.311 51.1144 187.048 50.9805V30.0214H181.845L181.467 27.5522C181.893 27.38 182.416 27.2077 183.036 27.0354C183.656 26.8632 184.286 26.71 184.926 26.5761C185.585 26.4229 186.214 26.2985 186.815 26.2028C187.435 26.1071 187.949 26.0593 188.356 26.0593C189.17 26.0593 189.8 26.1645 190.245 26.3751C190.71 26.5856 191.05 26.8727 191.263 27.2364C191.495 27.5809 191.631 28.002 191.67 28.4997C191.708 28.9782 191.728 29.4854 191.728 30.0214V32.2321C191.805 32.0599 191.941 31.8015 192.135 31.4569C192.329 31.1124 192.532 30.7583 192.745 30.3946C192.978 30.0118 193.201 29.6481 193.414 29.3036C193.646 28.9591 193.84 28.7007 193.995 28.5284C194.615 27.7436 195.39 27.1216 196.321 26.6622C197.27 26.1837 198.433 25.9444 199.809 25.9444C199.945 25.9444 200.129 25.954 200.361 25.9731C200.594 25.9731 200.836 25.9827 201.088 26.0018C201.34 26.021 201.592 26.0497 201.844 26.088C202.096 26.1071 202.318 26.1454 202.512 26.2028C202.532 26.4325 202.541 26.7292 202.541 27.0929C202.561 27.4565 202.561 27.8489 202.541 28.27C202.541 28.6911 202.522 29.1218 202.483 29.562C202.464 29.9831 202.425 30.3755 202.367 30.7392C202.037 30.6817 201.63 30.6243 201.146 30.5669C200.662 30.5095 200.109 30.4808 199.489 30.4808C198.753 30.4808 198.026 30.5478 197.309 30.6817C196.592 30.7966 195.943 30.9784 195.361 31.2272C194.625 31.5335 193.995 31.945 193.472 32.4618C192.949 32.9786 192.435 33.5433 191.931 34.1558V50.9805L198.646 51.6408C198.685 51.7365 198.704 51.8992 198.704 52.1289C198.704 52.3586 198.704 52.5404 198.704 52.6744C198.704 52.9424 198.685 53.2295 198.646 53.5357C198.627 53.8228 198.578 54.0334 198.501 54.1674H182.629L182.368 51.9279Z" fill="white"/>
<path d="M206.902 29.9352L203.966 29.1888C203.927 29.0931 203.908 28.9686 203.908 28.8155C203.908 28.6624 203.908 28.5188 203.908 28.3849C203.908 28.1169 203.946 27.8393 204.024 27.5522C204.101 27.246 204.189 27.0259 204.285 26.8919H216.698L216.872 29.1313C216.213 29.2845 215.448 29.4472 214.576 29.6194C213.704 29.7726 212.919 29.897 212.221 29.9927L216.814 47.7074L217.599 51.0666L218.18 48.741L223.907 26.8919C224.817 26.643 225.689 26.5378 226.523 26.5761C227.356 26.5952 228.228 26.6813 229.139 26.8345L234.778 47.7074L235.65 51.0666L236.348 48.6549L241.755 30.0501L236.755 29.1888C236.716 29.0931 236.687 28.9686 236.668 28.8155C236.668 28.6624 236.668 28.5188 236.668 28.3849C236.668 28.1169 236.706 27.8393 236.784 27.5522C236.861 27.246 236.939 27.0259 237.017 26.8919H248.15L248.411 29.3323C248.043 29.5046 247.597 29.6577 247.074 29.7917C246.551 29.9065 246.125 30.0022 245.795 30.0788L238.121 54.2248C237.617 54.3396 237.065 54.4066 236.464 54.4258C235.863 54.4641 235.272 54.4736 234.691 54.4545C234.129 54.4354 233.616 54.3971 233.15 54.3396C232.685 54.2822 232.327 54.2248 232.075 54.1674L226.581 34.8736L225.97 31.5144L225.476 34.8161L220.128 54.11C219.779 54.2057 219.314 54.2822 218.732 54.3396C218.151 54.3971 217.55 54.4258 216.93 54.4258C216.329 54.4258 215.758 54.4066 215.215 54.3684C214.692 54.3301 214.314 54.2631 214.081 54.1674L206.902 29.9352Z" fill="white"/>
<path d="M252.074 40.5296C252.074 38.5199 252.355 36.6441 252.917 34.9023C253.498 33.1413 254.38 31.6101 255.562 30.3085C256.764 28.9878 258.266 27.9542 260.068 27.2077C261.889 26.4421 264.05 26.0593 266.55 26.0593C269.05 26.0593 271.094 26.4421 272.684 27.2077C274.273 27.9542 275.523 28.9878 276.433 30.3085C277.364 31.6101 278.003 33.1413 278.352 34.9023C278.701 36.6441 278.875 38.5199 278.875 40.5296C278.875 42.5394 278.584 44.4248 278.003 46.1857C277.422 47.9275 276.53 49.4588 275.329 50.7795C274.147 52.081 272.645 53.1146 270.823 53.8803C269.002 54.6268 266.85 55 264.37 55C261.87 55 259.826 54.6268 258.237 53.8803C256.647 53.1146 255.397 52.081 254.487 50.7795C253.576 49.4588 252.946 47.9275 252.597 46.1857C252.248 44.4248 252.074 42.5394 252.074 40.5296ZM257.423 40.5296C257.423 42.8648 257.607 44.7693 257.975 46.2431C258.343 47.717 258.866 48.875 259.545 49.7172C260.242 50.5594 261.085 51.1432 262.074 51.4685C263.062 51.7748 264.186 51.9279 265.446 51.9279C266.569 51.9279 267.616 51.7748 268.585 51.4685C269.573 51.1432 270.426 50.5594 271.143 49.7172C271.879 48.875 272.451 47.717 272.858 46.2431C273.284 44.7693 273.497 42.8648 273.497 40.5296C273.497 38.2136 273.313 36.3187 272.945 34.8448C272.577 33.3519 272.044 32.1843 271.346 31.3421C270.668 30.4999 269.825 29.9257 268.817 29.6194C267.829 29.294 266.705 29.1313 265.446 29.1313C264.341 29.1313 263.294 29.294 262.306 29.6194C261.337 29.9257 260.484 30.4999 259.748 31.3421C259.031 32.1843 258.459 33.3519 258.033 34.8448C257.626 36.3187 257.423 38.2136 257.423 40.5296Z" fill="white"/>
<path d="M284.514 40.5296C284.514 38.5199 284.795 36.6441 285.357 34.9023C285.939 33.1413 286.821 31.6101 288.003 30.3085C289.204 28.9878 290.706 27.9542 292.508 27.2077C294.33 26.4421 296.491 26.0593 298.991 26.0593C301.49 26.0593 303.535 26.4421 305.124 27.2077C306.713 27.9542 307.963 28.9878 308.874 30.3085C309.804 31.6101 310.444 33.1413 310.792 34.9023C311.141 36.6441 311.316 38.5199 311.316 40.5296C311.316 42.5394 311.025 44.4248 310.444 46.1857C309.862 47.9275 308.971 49.4588 307.769 50.7795C306.587 52.081 305.085 53.1146 303.264 53.8803C301.442 54.6268 299.291 55 296.81 55C294.311 55 292.266 54.6268 290.677 53.8803C289.088 53.1146 287.838 52.081 286.927 50.7795C286.016 49.4588 285.386 47.9275 285.038 46.1857C284.689 44.4248 284.514 42.5394 284.514 40.5296ZM289.863 40.5296C289.863 42.8648 290.047 44.7693 290.415 46.2431C290.784 47.717 291.307 48.875 291.985 49.7172C292.683 50.5594 293.526 51.1432 294.514 51.4685C295.502 51.7748 296.626 51.9279 297.886 51.9279C299.01 51.9279 300.056 51.7748 301.025 51.4685C302.014 51.1432 302.866 50.5594 303.583 49.7172C304.32 48.875 304.891 47.717 305.298 46.2431C305.725 44.7693 305.938 42.8648 305.938 40.5296C305.938 38.2136 305.754 36.3187 305.386 34.8448C305.017 33.3519 304.484 32.1843 303.787 31.3421C303.109 30.4999 302.266 29.9257 301.258 29.6194C300.27 29.294 299.146 29.1313 297.886 29.1313C296.781 29.1313 295.735 29.294 294.747 29.6194C293.778 29.9257 292.925 30.4999 292.189 31.3421C291.471 32.1843 290.9 33.3519 290.473 34.8448C290.067 36.3187 289.863 38.2136 289.863 40.5296Z" fill="white"/>
<path d="M326.78 55C324.687 55 322.991 54.6363 321.693 53.909C320.414 53.1816 319.416 52.2055 318.699 50.9805C318.001 49.7363 317.536 48.2912 317.304 46.6451C317.071 44.999 316.955 43.2572 316.955 41.4197C316.955 38.7208 317.255 36.4048 317.856 34.4716C318.476 32.5384 319.358 30.9497 320.501 29.7056C321.664 28.4423 323.079 27.5235 324.745 26.9493C326.431 26.3559 328.34 26.0593 330.472 26.0593C330.879 26.0593 331.353 26.0784 331.896 26.1167C332.439 26.155 333.01 26.222 333.611 26.3177C334.212 26.4134 334.822 26.5473 335.442 26.7196C336.082 26.8727 336.692 27.0641 337.274 27.2938V11.9621H331.693L331.373 9.49298C331.605 9.39727 332.022 9.27286 332.623 9.11973C333.224 8.94746 333.882 8.78477 334.599 8.63164C335.336 8.45938 336.082 8.31582 336.838 8.20098C337.593 8.06699 338.243 8 338.785 8C339.599 8 340.219 8.10527 340.646 8.31582C341.091 8.52637 341.421 8.79434 341.634 9.11973C341.867 9.42598 342.002 9.76094 342.041 10.1246C342.099 10.4883 342.138 10.8137 342.157 11.1008V51.124H347.767L348 53.507C347.767 53.6027 347.37 53.7367 346.808 53.909C346.266 54.0812 345.655 54.2439 344.977 54.3971C344.318 54.5693 343.63 54.7129 342.913 54.8277C342.215 54.9426 341.595 55 341.053 55C340.258 55 339.628 54.8852 339.163 54.6555C338.717 54.4449 338.378 54.1865 338.146 53.8803C337.933 53.5549 337.797 53.2103 337.739 52.8467C337.7 52.4639 337.681 52.1289 337.681 51.8418V50.8656H337.593C337.051 51.325 336.353 51.8035 335.501 52.3012C334.667 52.7797 333.756 53.2199 332.768 53.6219C331.799 54.0238 330.791 54.3492 329.745 54.598C328.699 54.866 327.71 55 326.78 55ZM328.088 51.1814C328.824 51.1814 329.6 51.0953 330.414 50.923C331.247 50.7508 332.07 50.5211 332.884 50.234C333.698 49.9469 334.483 49.6215 335.239 49.2578C335.995 48.8941 336.673 48.5209 337.274 48.1381V30.1362C336.692 30.0022 335.888 29.8587 334.861 29.7056C333.853 29.5524 332.758 29.4759 331.576 29.4759C329.522 29.4759 327.875 29.7726 326.635 30.3659C325.394 30.9401 324.435 31.7632 323.757 32.8351C323.098 33.8878 322.652 35.1511 322.42 36.6249C322.207 38.0988 322.1 39.7161 322.1 41.4771C322.1 42.9701 322.177 44.3195 322.333 45.5254C322.488 46.7121 322.778 47.7265 323.205 48.5687C323.65 49.4109 324.261 50.0617 325.036 50.5211C325.83 50.9613 326.848 51.1814 328.088 51.1814Z" fill="white"/>
<path d="M54.2761 53.6555C54.066 54.1152 53.6064 54.4172 53.0942 54.4172H38.2942V60.6868C38.2942 61.4222 37.7164 62 36.981 62H30.218C29.4956 62 28.9047 61.4222 28.9047 60.6868V54.4172H14.1179C13.6057 54.4172 13.1461 54.1152 12.9228 53.6555C12.7127 53.1959 12.7915 52.6444 13.1198 52.2503L22.1153 41.6265H14.827C14.3148 41.6265 13.8552 41.3244 13.632 40.8648C13.4219 40.392 13.4876 39.8536 13.8289 39.4596L24.4266 26.9316H19.8698C19.3576 26.9316 18.8849 26.6295 18.6747 26.1699C18.4646 25.7103 18.5303 25.1587 18.8586 24.7647L25.4247 17.0168H22.0103C21.4982 17.0168 21.0386 16.7147 20.8153 16.2551C20.6052 15.7955 20.6708 15.2439 21.0123 14.8499L32.5949 1.15309C33.107 0.562128 34.105 0.562128 34.6041 1.15309L46.1998 14.8499C46.5281 15.2439 46.6069 15.7955 46.3968 16.2551C46.1735 16.7147 45.7139 17.0168 45.2017 17.0168H41.7874L48.3535 24.7647C48.6818 25.1587 48.7474 25.7103 48.5373 26.1699C48.3141 26.6295 47.8545 26.9316 47.3423 26.9316H42.7855L53.3831 39.4596C53.7114 39.8536 53.7901 40.392 53.5801 40.8648C53.3568 41.3244 52.8972 41.6265 52.3851 41.6265H45.0967L54.0922 52.2503C54.4205 52.6444 54.4993 53.1959 54.2761 53.6555Z" fill="white"/>
<path fill-rule="evenodd" clip-rule="evenodd" d="M43.1354 21.0998L41.0776 23.5333C40.813 23.8386 40.7622 24.2659 40.9249 24.622C41.0979 24.978 41.454 25.2121 41.8508 25.2121H44.496L44.4043 25.3202H46.7121L43.1354 21.0998ZM41.8558 28.3275L39.409 31.2147C39.1547 31.5199 39.1038 31.9472 39.2666 32.3033C39.4294 32.6594 39.7956 32.8934 40.1924 32.8934H43.7228L35.5124 42.5993C35.2479 42.9046 35.197 43.3217 35.3598 43.688C35.5327 44.0441 35.8888 44.2781 36.2856 44.2781H41.9321L34.963 52.5088C34.7086 52.814 34.6476 53.2413 34.8104 53.5974C34.9834 53.9535 35.3394 54.1875 35.7362 54.1875H36.6828V52.8059H52.4512L41.6209 40.0151H51.7424L41.8558 28.3275ZM30.516 54.1875H31.7728C32.1696 54.1875 32.5257 53.9535 32.6885 53.5974C32.8614 53.2413 32.8004 52.814 32.546 52.5088L25.5768 44.2781H31.2234C31.6202 44.2781 31.9763 44.0441 32.1492 43.688C32.312 43.3217 32.2509 42.9046 31.9966 42.5993L23.7863 32.8934H27.3166C27.7134 32.8934 28.0694 32.6594 28.2424 32.3033C28.4052 31.9472 28.3543 31.5199 28.1 31.2147L25.5046 28.1521L15.4694 40.0151H25.5909L14.7607 52.8059H30.516V54.1875ZM23.1047 25.3202L23.013 25.2121H25.6582C26.055 25.2121 26.4111 24.978 26.5841 24.622C26.7468 24.2659 26.6858 23.8386 26.4315 23.5333L24.2239 20.9258L20.4998 25.3202H23.1047ZM48.0868 15.2446C48.177 15.802 48.1083 16.3865 47.8622 16.925L47.8543 16.9422L47.846 16.9593C47.3753 17.928 46.3973 18.6033 45.2644 18.6274L49.587 23.7281L49.5913 23.7333C50.3263 24.6153 50.464 25.8308 50.0026 26.8399L49.9948 26.8569L49.9866 26.8737C49.5073 27.8609 48.5015 28.5429 47.3422 28.5429H46.2589L54.617 38.4235L54.6208 38.4281C55.3377 39.2882 55.5145 40.4794 55.0525 41.5191L55.0414 41.5441L55.0294 41.5686C54.55 42.5558 53.5442 43.2378 52.385 43.2378H48.5723L55.326 51.214L55.3301 51.2189C56.0053 52.0293 56.2164 53.1714 55.8022 54.1875H65.9326C66.3294 54.1875 66.6854 53.9535 66.8482 53.5974C67.0212 53.2413 66.9601 52.814 66.7058 52.5088L59.7366 44.2781H65.3832C65.7799 44.2781 66.136 44.0441 66.309 43.688C66.4717 43.3217 66.4107 42.9046 66.1563 42.5993L57.946 32.8934H61.4763C61.8732 32.8934 62.2292 32.6594 62.4022 32.3033C62.565 31.9472 62.5141 31.5199 62.2598 31.2147L57.1728 25.2121H59.818C60.2148 25.2121 60.5709 24.978 60.7439 24.622C60.9066 24.2659 60.8456 23.8386 60.5912 23.5333L51.6076 12.9219C51.221 12.4641 50.4477 12.4641 50.051 12.9219L48.0868 15.2446ZM54.4665 55.6839V59.0448C54.4665 59.6145 54.0188 60.0622 53.4491 60.0622H48.2095C47.6499 60.0622 47.1921 59.6145 47.1921 59.0448V56.0285H53.0941C53.5857 56.0285 54.0543 55.905 54.4665 55.6839ZM19.178 14.9656L17.4478 12.9219C17.0612 12.4641 16.288 12.4641 15.8912 12.9219L6.9178 23.5333C6.65326 23.8386 6.60241 24.2659 6.76516 24.622C6.93816 24.978 7.29423 25.2121 7.69103 25.2121H10.3362L5.24925 31.2147C4.9949 31.5199 4.94405 31.9472 5.1068 32.3033C5.26962 32.6594 5.63587 32.8934 6.03267 32.8934H9.563L1.35261 42.5993C1.08813 42.9046 1.03721 43.3217 1.20003 43.688C1.37297 44.0441 1.72904 44.2781 2.12584 44.2781H7.77238L0.803233 52.5088C0.548884 52.814 0.487843 53.2413 0.650599 53.5974C0.823601 53.9535 1.17967 54.1875 1.57646 54.1875H11.3985C10.9995 53.1802 11.1997 52.0376 11.8818 51.2189L11.8859 51.214L18.6396 43.2378H14.8269C13.6676 43.2378 12.6619 42.5558 12.1825 41.5686L12.1706 41.5442L12.1596 41.5193C11.7111 40.5106 11.8374 39.3042 12.6037 38.4131L20.953 28.5429H19.8697C18.7353 28.5429 17.685 27.8804 17.2092 26.8397C16.7479 25.8307 16.8857 24.6153 17.6206 23.7333L17.6249 23.7281L21.9475 18.6274C20.8146 18.6033 19.8366 17.928 19.3659 16.9593L19.3576 16.9422L19.3497 16.925C19.0689 16.3105 19.0091 15.6156 19.178 14.9656ZM13.0324 55.8187C13.3684 55.954 13.7347 56.0285 14.1178 56.0285H20.3067V59.0448C20.3067 59.6145 19.8591 60.0622 19.2893 60.0622H14.0498C13.4901 60.0622 13.0324 59.6145 13.0324 59.0448V55.8187Z" fill="white"/>
<path d="M54.2761 53.6555C54.066 54.1152 53.6064 54.4172 53.0942 54.4172H38.2942V60.6868C38.2942 61.4222 37.7164 62 36.981 62H30.218C29.4956 62 28.9047 61.4222 28.9047 60.6868V54.4172H14.1179C13.6057 54.4172 13.1461 54.1152 12.9228 53.6555C12.7127 53.1959 12.7915 52.6444 13.1198 52.2503L22.1153 41.6265H14.827C14.3148 41.6265 13.8552 41.3244 13.632 40.8648C13.4219 40.392 13.4876 39.8536 13.8289 39.4596L24.4266 26.9316H19.8698C19.3576 26.9316 18.8849 26.6295 18.6747 26.1699C18.4646 25.7103 18.5303 25.1587 18.8586 24.7647L25.4247 17.0168H22.0103C21.4982 17.0168 21.0386 16.7147 20.8153 16.2551C20.6052 15.7955 20.6708 15.2439 21.0123 14.8499L32.5949 1.15309C33.107 0.562128 34.105 0.562128 34.6041 1.15309L46.1998 14.8499C46.5281 15.2439 46.6069 15.7955 46.3968 16.2551C46.1735 16.7147 45.7139 17.0168 45.2017 17.0168H41.7874L48.3535 24.7647C48.6818 25.1587 48.7474 25.7103 48.5373 26.1699C48.3141 26.6295 47.8545 26.9316 47.3423 26.9316H42.7855L53.3831 39.4596C53.7114 39.8536 53.7901 40.392 53.5801 40.8648C53.3568 41.3244 52.8972 41.6265 52.3851 41.6265H45.0967L54.0922 52.2503C54.4205 52.6444 54.4993 53.1959 54.2761 53.6555Z" fill="white"/>
<path fill-rule="evenodd" clip-rule="evenodd" d="M43.1354 21.0998L41.0776 23.5333C40.813 23.8386 40.7622 24.2659 40.9249 24.622C41.0979 24.978 41.454 25.2121 41.8508 25.2121H44.496L44.4043 25.3202H46.7121L43.1354 21.0998ZM41.8558 28.3275L39.409 31.2147C39.1547 31.5199 39.1038 31.9472 39.2666 32.3033C39.4294 32.6594 39.7956 32.8934 40.1924 32.8934H43.7228L35.5124 42.5993C35.2479 42.9046 35.197 43.3217 35.3598 43.688C35.5327 44.0441 35.8888 44.2781 36.2856 44.2781H41.9321L34.963 52.5088C34.7086 52.814 34.6476 53.2413 34.8104 53.5974C34.9834 53.9535 35.3394 54.1875 35.7362 54.1875H36.6828V52.8059H52.4512L41.6209 40.0151H51.7424L41.8558 28.3275ZM30.516 54.1875H31.7728C32.1696 54.1875 32.5257 53.9535 32.6885 53.5974C32.8614 53.2413 32.8004 52.814 32.546 52.5088L25.5768 44.2781H31.2234C31.6202 44.2781 31.9763 44.0441 32.1492 43.688C32.312 43.3217 32.2509 42.9046 31.9966 42.5993L23.7863 32.8934H27.3166C27.7134 32.8934 28.0694 32.6594 28.2424 32.3033C28.4052 31.9472 28.3543 31.5199 28.1 31.2147L25.5046 28.1521L15.4694 40.0151H25.5909L14.7607 52.8059H30.516V54.1875ZM23.1047 25.3202L23.013 25.2121H25.6582C26.055 25.2121 26.4111 24.978 26.5841 24.622C26.7468 24.2659 26.6858 23.8386 26.4315 23.5333L24.2239 20.9258L20.4998 25.3202H23.1047ZM48.0868 15.2446C48.177 15.802 48.1083 16.3865 47.8622 16.925L47.8543 16.9422L47.846 16.9593C47.3753 17.928 46.3973 18.6033 45.2644 18.6274L49.587 23.7281L49.5913 23.7333C50.3263 24.6153 50.464 25.8308 50.0026 26.8399L49.9948 26.8569L49.9866 26.8737C49.5073 27.8609 48.5015 28.5429 47.3422 28.5429H46.2589L54.617 38.4235L54.6208 38.4281C55.3377 39.2882 55.5145 40.4794 55.0525 41.5191L55.0414 41.5441L55.0294 41.5686C54.55 42.5558 53.5442 43.2378 52.385 43.2378H48.5723L55.326 51.214L55.3301 51.2189C56.0053 52.0293 56.2164 53.1714 55.8022 54.1875H65.9326C66.3294 54.1875 66.6854 53.9535 66.8482 53.5974C67.0212 53.2413 66.9601 52.814 66.7058 52.5088L59.7366 44.2781H65.3832C65.7799 44.2781 66.136 44.0441 66.309 43.688C66.4717 43.3217 66.4107 42.9046 66.1563 42.5993L57.946 32.8934H61.4763C61.8732 32.8934 62.2292 32.6594 62.4022 32.3033C62.565 31.9472 62.5141 31.5199 62.2598 31.2147L57.1728 25.2121H59.818C60.2148 25.2121 60.5709 24.978 60.7439 24.622C60.9066 24.2659 60.8456 23.8386 60.5912 23.5333L51.6076 12.9219C51.221 12.4641 50.4477 12.4641 50.051 12.9219L48.0868 15.2446ZM54.4665 55.6839V59.0448C54.4665 59.6145 54.0188 60.0622 53.4491 60.0622H48.2095C47.6499 60.0622 47.1921 59.6145 47.1921 59.0448V56.0285H53.0941C53.5857 56.0285 54.0543 55.905 54.4665 55.6839ZM19.178 14.9656L17.4478 12.9219C17.0612 12.4641 16.288 12.4641 15.8912 12.9219L6.9178 23.5333C6.65326 23.8386 6.60241 24.2659 6.76516 24.622C6.93816 24.978 7.29423 25.2121 7.69103 25.2121H10.3362L5.24925 31.2147C4.9949 31.5199 4.94405 31.9472 5.1068 32.3033C5.26962 32.6594 5.63587 32.8934 6.03267 32.8934H9.563L1.35261 42.5993C1.08813 42.9046 1.03721 43.3217 1.20003 43.688C1.37297 44.0441 1.72904 44.2781 2.12584 44.2781H7.77238L0.803233 52.5088C0.548884 52.814 0.487843 53.2413 0.650599 53.5974C0.823601 53.9535 1.17967 54.1875 1.57646 54.1875H11.3985C10.9995 53.1802 11.1997 52.0376 11.8818 51.2189L11.8859 51.214L18.6396 43.2378H14.8269C13.6676 43.2378 12.6619 42.5558 12.1825 41.5686L12.1706 41.5442L12.1596 41.5193C11.7111 40.5106 11.8374 39.3042 12.6037 38.4131L20.953 28.5429H19.8697C18.7353 28.5429 17.685 27.8804 17.2092 26.8397C16.7479 25.8307 16.8857 24.6153 17.6206 23.7333L17.6249 23.7281L21.9475 18.6274C20.8146 18.6033 19.8366 17.928 19.3659 16.9593L19.3576 16.9422L19.3497 16.925C19.0689 16.3105 19.0091 15.6156 19.178 14.9656ZM13.0324 55.8187C13.3684 55.954 13.7347 56.0285 14.1178 56.0285H20.3067V59.0448C20.3067 59.6145 19.8591 60.0622 19.2893 60.0622H14.0498C13.4901 60.0622 13.0324 59.6145 13.0324 59.0448V55.8187Z" fill="white"/>
</svg>
