<svg width="289" height="176" viewBox="0 0 289 176" fill="none" xmlns="http://www.w3.org/2000/svg">
<path d="M4.96875 143.172C5.36458 143.151 5.70833 143.141 6 143.141C6.29167 143.141 6.5625 143.151 6.8125 143.172C7.08333 143.172 7.35417 143.193 7.625 143.234C7.91667 143.276 8.27083 143.318 8.6875 143.359C8.79167 143.963 8.875 144.516 8.9375 145.016C9 145.495 9.0625 145.984 9.125 146.484C9.1875 146.984 9.25 147.516 9.3125 148.078C9.375 148.62 9.45833 149.266 9.5625 150.016C10.2708 150.453 11 150.87 11.75 151.266C12.5208 151.661 13.3229 152.005 14.1562 152.297C15.0104 152.588 15.9062 152.828 16.8438 153.016C17.7812 153.182 18.8021 153.266 19.9062 153.266C21.2604 153.266 22.4375 153.088 23.4375 152.734C24.4375 152.38 25.2604 151.891 25.9062 151.266C26.5521 150.62 27.0312 149.838 27.3438 148.922C27.6562 148.005 27.8125 146.984 27.8125 145.859C27.8125 145.318 27.7917 144.807 27.75 144.328C27.7083 143.828 27.6146 143.349 27.4688 142.891C27.3229 142.432 27.1146 141.995 26.8438 141.578C26.5729 141.161 26.2083 140.755 25.75 140.359C24.5208 139.318 23.2292 138.391 21.875 137.578C20.5208 136.766 19.1354 135.984 17.7188 135.234C16.3229 134.484 14.9167 133.734 13.5 132.984C12.0833 132.213 10.6979 131.359 9.34375 130.422C8.61458 129.901 7.95833 129.38 7.375 128.859C6.8125 128.318 6.32292 127.724 5.90625 127.078C5.51042 126.411 5.20833 125.672 5 124.859C4.79167 124.026 4.6875 123.057 4.6875 121.953C4.6875 119.911 4.97917 118.193 5.5625 116.797C6.14583 115.38 6.95833 114.193 8 113.234C9.27083 112.047 10.7396 111.213 12.4062 110.734C14.0938 110.234 16.0521 109.984 18.2812 109.984C19.4688 109.984 20.6875 110.036 21.9375 110.141C23.2083 110.245 24.4375 110.401 25.625 110.609C26.8333 110.797 27.9688 111.026 29.0312 111.297C30.1146 111.568 31.0833 111.859 31.9375 112.172C31.7917 113.859 31.6146 115.557 31.4062 117.266C31.2188 118.974 30.9792 120.588 30.6875 122.109C30.25 122.151 29.875 122.182 29.5625 122.203C29.25 122.203 28.9583 122.203 28.6875 122.203C28.4375 122.182 28.1667 122.161 27.875 122.141C27.6042 122.12 27.2812 122.078 26.9062 122.016L26.4062 115.828C25.0312 115.099 23.5938 114.547 22.0938 114.172C20.5938 113.776 19.1146 113.578 17.6562 113.578C16.5104 113.578 15.4583 113.713 14.5 113.984C13.5625 114.255 12.75 114.672 12.0625 115.234C11.375 115.776 10.8438 116.474 10.4688 117.328C10.0938 118.161 9.90625 119.161 9.90625 120.328C9.90625 121.161 10.0104 121.911 10.2188 122.578C10.4271 123.245 10.7396 123.87 11.1562 124.453C11.5938 125.016 12.1458 125.547 12.8125 126.047C13.4792 126.547 14.2708 127.047 15.1875 127.547L25.9688 133.609C27.7812 134.609 29.1771 135.599 30.1562 136.578C31.1562 137.557 31.8854 138.536 32.3438 139.516C32.8229 140.495 33.1042 141.484 33.1875 142.484C33.2917 143.463 33.3438 144.474 33.3438 145.516C33.3438 146.703 33.1979 147.786 32.9062 148.766C32.6354 149.724 32.25 150.599 31.75 151.391C31.25 152.161 30.6667 152.849 30 153.453C29.3333 154.036 28.625 154.536 27.875 154.953C27 155.432 26.0938 155.807 25.1562 156.078C24.2396 156.349 23.3333 156.547 22.4375 156.672C21.5417 156.818 20.6979 156.901 19.9062 156.922C19.1146 156.963 18.4271 156.984 17.8438 156.984C16.6354 156.984 15.3542 156.859 14 156.609C12.6458 156.38 11.3438 156.078 10.0938 155.703C8.84375 155.328 7.69792 154.922 6.65625 154.484C5.61458 154.026 4.79167 153.588 4.1875 153.172L4.96875 143.172ZM39.875 153.703C40.4792 153.495 41.1979 153.307 42.0312 153.141C42.8854 152.974 43.7917 152.818 44.75 152.672V110.203H39.3438L39 107.516C39.25 107.411 39.6667 107.276 40.25 107.109C40.8333 106.922 41.4792 106.745 42.1875 106.578C42.8958 106.391 43.6146 106.234 44.3438 106.109C45.0938 105.963 45.7708 105.891 46.375 105.891C47.25 105.891 47.9271 106.005 48.4062 106.234C48.8854 106.463 49.2396 106.755 49.4688 107.109C49.7188 107.443 49.8646 107.807 49.9062 108.203C49.9688 108.599 50 108.953 50 109.266V129.359C51.9167 127.984 53.7292 127.005 55.4375 126.422C57.1667 125.838 58.8958 125.547 60.625 125.547C62.2708 125.547 63.6458 125.693 64.75 125.984C65.875 126.276 66.7708 126.797 67.4375 127.547C68.125 128.297 68.6146 129.328 68.9062 130.641C69.1979 131.932 69.3438 133.588 69.3438 135.609V152.797L74.2188 153.703C74.3229 154.036 74.3333 154.443 74.25 154.922C74.1875 155.401 74.0833 155.807 73.9375 156.141H60.125L59.9062 153.703C60.4479 153.516 61.1042 153.338 61.875 153.172C62.6458 153.005 63.3854 152.859 64.0938 152.734V135.922C64.0938 134.734 64.0104 133.745 63.8438 132.953C63.6979 132.161 63.4375 131.536 63.0625 131.078C62.7083 130.599 62.2292 130.266 61.625 130.078C61.0208 129.87 60.2708 129.766 59.375 129.766C57.75 129.766 56.1667 129.922 54.625 130.234C53.1042 130.526 51.5625 131.036 50 131.766V152.672L54.9688 153.703C55.0312 154.078 55.0312 154.495 54.9688 154.953C54.9062 155.411 54.7917 155.807 54.625 156.141H40.1875L39.875 153.703ZM79.125 142.703C79.1042 139.661 79.4062 137.057 80.0312 134.891C80.6771 132.724 81.5833 130.953 82.75 129.578C83.9167 128.182 85.3333 127.161 87 126.516C88.6875 125.87 90.5729 125.547 92.6562 125.547C94.9271 125.547 96.7917 125.818 98.25 126.359C99.7083 126.88 100.854 127.713 101.688 128.859C102.521 129.984 103.094 131.432 103.406 133.203C103.74 134.974 103.896 137.099 103.875 139.578L84.5 139.734C84.5 141.213 84.5208 142.568 84.5625 143.797C84.625 145.026 84.7604 146.141 84.9688 147.141C85.1979 148.12 85.5208 148.984 85.9375 149.734C86.3542 150.463 86.9271 151.078 87.6562 151.578C88.4062 152.057 89.3229 152.422 90.4062 152.672C91.5104 152.922 92.8438 153.047 94.4062 153.047C95.1979 153.047 96.0521 152.974 96.9688 152.828C97.9062 152.682 98.7812 152.516 99.5938 152.328C100.427 152.141 101.135 151.963 101.719 151.797C102.323 151.609 102.708 151.484 102.875 151.422L103.938 154.078C103.792 154.182 103.417 154.401 102.812 154.734C102.208 155.047 101.417 155.38 100.438 155.734C99.4792 156.068 98.3438 156.37 97.0312 156.641C95.7188 156.911 94.2812 157.047 92.7188 157.047C90.7812 157.047 88.9792 156.87 87.3125 156.516C85.6667 156.182 84.2396 155.505 83.0312 154.484C81.8229 153.463 80.875 152.016 80.1875 150.141C79.5 148.266 79.1458 145.786 79.125 142.703ZM98.5 136.203C98.4583 134.432 98.2292 133.047 97.8125 132.047C97.4167 131.047 96.9167 130.307 96.3125 129.828C95.7292 129.328 95.0938 129.026 94.4062 128.922C93.7188 128.797 93.0625 128.734 92.4375 128.734C91.0833 128.734 89.9375 128.891 89 129.203C88.0833 129.495 87.3229 129.963 86.7188 130.609C86.1146 131.255 85.6562 132.088 85.3438 133.109C85.0312 134.109 84.8125 135.307 84.6875 136.703L98.5 136.203ZM109.938 153.703C110.729 153.432 111.562 153.234 112.438 153.109C113.333 152.963 114.177 152.818 114.969 152.672V129.859H109.375L108.969 127.172C109.427 126.984 109.99 126.797 110.656 126.609C111.323 126.422 112 126.255 112.688 126.109C113.396 125.943 114.073 125.807 114.719 125.703C115.385 125.599 115.938 125.547 116.375 125.547C117.25 125.547 117.927 125.661 118.406 125.891C118.906 126.12 119.271 126.432 119.5 126.828C119.75 127.203 119.896 127.661 119.938 128.203C119.979 128.724 120 129.276 120 129.859V132.266C120.083 132.078 120.229 131.797 120.438 131.422C120.646 131.047 120.865 130.661 121.094 130.266C121.344 129.849 121.583 129.453 121.812 129.078C122.062 128.703 122.271 128.422 122.438 128.234C123.104 127.38 123.938 126.703 124.938 126.203C125.958 125.682 127.208 125.422 128.688 125.422C128.833 125.422 129.031 125.432 129.281 125.453C129.531 125.453 129.792 125.463 130.062 125.484C130.333 125.505 130.604 125.536 130.875 125.578C131.146 125.599 131.385 125.641 131.594 125.703C131.615 125.953 131.625 126.276 131.625 126.672C131.646 127.068 131.646 127.495 131.625 127.953C131.625 128.411 131.604 128.88 131.562 129.359C131.542 129.818 131.5 130.245 131.438 130.641C131.083 130.578 130.646 130.516 130.125 130.453C129.604 130.391 129.01 130.359 128.344 130.359C127.552 130.359 126.771 130.432 126 130.578C125.229 130.703 124.531 130.901 123.906 131.172C123.115 131.505 122.438 131.953 121.875 132.516C121.312 133.078 120.76 133.693 120.219 134.359V152.672L127.438 153.391C127.479 153.495 127.5 153.672 127.5 153.922C127.5 154.172 127.5 154.37 127.5 154.516C127.5 154.807 127.479 155.12 127.438 155.453C127.417 155.766 127.365 155.995 127.281 156.141H110.219L109.938 153.703ZM136.312 129.766L133.156 128.953C133.115 128.849 133.094 128.713 133.094 128.547C133.094 128.38 133.094 128.224 133.094 128.078C133.094 127.786 133.135 127.484 133.219 127.172C133.302 126.838 133.396 126.599 133.5 126.453H146.844L147.031 128.891C146.323 129.057 145.5 129.234 144.562 129.422C143.625 129.588 142.781 129.724 142.031 129.828L146.969 149.109L147.812 152.766L148.438 150.234L154.594 126.453C155.573 126.182 156.51 126.068 157.406 126.109C158.302 126.13 159.24 126.224 160.219 126.391L166.281 149.109L167.219 152.766L167.969 150.141L173.781 129.891L168.406 128.953C168.365 128.849 168.333 128.713 168.312 128.547C168.312 128.38 168.312 128.224 168.312 128.078C168.312 127.786 168.354 127.484 168.438 127.172C168.521 126.838 168.604 126.599 168.688 126.453H180.656L180.938 129.109C180.542 129.297 180.062 129.463 179.5 129.609C178.938 129.734 178.479 129.838 178.125 129.922L169.875 156.203C169.333 156.328 168.74 156.401 168.094 156.422C167.448 156.463 166.812 156.474 166.188 156.453C165.583 156.432 165.031 156.391 164.531 156.328C164.031 156.266 163.646 156.203 163.375 156.141L157.469 135.141L156.812 131.484L156.281 135.078L150.531 156.078C150.156 156.182 149.656 156.266 149.031 156.328C148.406 156.391 147.76 156.422 147.094 156.422C146.448 156.422 145.833 156.401 145.25 156.359C144.688 156.318 144.281 156.245 144.031 156.141L136.312 129.766ZM184.875 141.297C184.875 139.109 185.177 137.068 185.781 135.172C186.406 133.255 187.354 131.588 188.625 130.172C189.917 128.734 191.531 127.609 193.469 126.797C195.427 125.963 197.75 125.547 200.438 125.547C203.125 125.547 205.323 125.963 207.031 126.797C208.74 127.609 210.083 128.734 211.062 130.172C212.062 131.588 212.75 133.255 213.125 135.172C213.5 137.068 213.688 139.109 213.688 141.297C213.688 143.484 213.375 145.536 212.75 147.453C212.125 149.349 211.167 151.016 209.875 152.453C208.604 153.87 206.99 154.995 205.031 155.828C203.073 156.641 200.76 157.047 198.094 157.047C195.406 157.047 193.208 156.641 191.5 155.828C189.792 154.995 188.448 153.87 187.469 152.453C186.49 151.016 185.812 149.349 185.438 147.453C185.062 145.536 184.875 143.484 184.875 141.297ZM190.625 141.297C190.625 143.838 190.823 145.911 191.219 147.516C191.615 149.12 192.177 150.38 192.906 151.297C193.656 152.213 194.562 152.849 195.625 153.203C196.688 153.536 197.896 153.703 199.25 153.703C200.458 153.703 201.583 153.536 202.625 153.203C203.688 152.849 204.604 152.213 205.375 151.297C206.167 150.38 206.781 149.12 207.219 147.516C207.677 145.911 207.906 143.838 207.906 141.297C207.906 138.776 207.708 136.713 207.312 135.109C206.917 133.484 206.344 132.213 205.594 131.297C204.865 130.38 203.958 129.755 202.875 129.422C201.812 129.068 200.604 128.891 199.25 128.891C198.062 128.891 196.938 129.068 195.875 129.422C194.833 129.755 193.917 130.38 193.125 131.297C192.354 132.213 191.74 133.484 191.281 135.109C190.844 136.713 190.625 138.776 190.625 141.297ZM219.75 141.297C219.75 139.109 220.052 137.068 220.656 135.172C221.281 133.255 222.229 131.588 223.5 130.172C224.792 128.734 226.406 127.609 228.344 126.797C230.302 125.963 232.625 125.547 235.312 125.547C238 125.547 240.198 125.963 241.906 126.797C243.615 127.609 244.958 128.734 245.938 130.172C246.938 131.588 247.625 133.255 248 135.172C248.375 137.068 248.562 139.109 248.562 141.297C248.562 143.484 248.25 145.536 247.625 147.453C247 149.349 246.042 151.016 244.75 152.453C243.479 153.87 241.865 154.995 239.906 155.828C237.948 156.641 235.635 157.047 232.969 157.047C230.281 157.047 228.083 156.641 226.375 155.828C224.667 154.995 223.323 153.87 222.344 152.453C221.365 151.016 220.688 149.349 220.312 147.453C219.938 145.536 219.75 143.484 219.75 141.297ZM225.5 141.297C225.5 143.838 225.698 145.911 226.094 147.516C226.49 149.12 227.052 150.38 227.781 151.297C228.531 152.213 229.438 152.849 230.5 153.203C231.562 153.536 232.771 153.703 234.125 153.703C235.333 153.703 236.458 153.536 237.5 153.203C238.562 152.849 239.479 152.213 240.25 151.297C241.042 150.38 241.656 149.12 242.094 147.516C242.552 145.911 242.781 143.838 242.781 141.297C242.781 138.776 242.583 136.713 242.188 135.109C241.792 133.484 241.219 132.213 240.469 131.297C239.74 130.38 238.833 129.755 237.75 129.422C236.688 129.068 235.479 128.891 234.125 128.891C232.938 128.891 231.812 129.068 230.75 129.422C229.708 129.755 228.792 130.38 228 131.297C227.229 132.213 226.615 133.484 226.156 135.109C225.719 136.713 225.5 138.776 225.5 141.297ZM265.188 157.047C262.938 157.047 261.115 156.651 259.719 155.859C258.344 155.068 257.271 154.005 256.5 152.672C255.75 151.318 255.25 149.745 255 147.953C254.75 146.161 254.625 144.266 254.625 142.266C254.625 139.328 254.948 136.807 255.594 134.703C256.26 132.599 257.208 130.87 258.438 129.516C259.688 128.141 261.208 127.141 263 126.516C264.812 125.87 266.865 125.547 269.156 125.547C269.594 125.547 270.104 125.568 270.688 125.609C271.271 125.651 271.885 125.724 272.531 125.828C273.177 125.932 273.833 126.078 274.5 126.266C275.188 126.432 275.844 126.641 276.469 126.891V110.203H270.469L270.125 107.516C270.375 107.411 270.823 107.276 271.469 107.109C272.115 106.922 272.823 106.745 273.594 106.578C274.385 106.391 275.188 106.234 276 106.109C276.812 105.963 277.51 105.891 278.094 105.891C278.969 105.891 279.635 106.005 280.094 106.234C280.573 106.463 280.927 106.755 281.156 107.109C281.406 107.443 281.552 107.807 281.594 108.203C281.656 108.599 281.698 108.953 281.719 109.266V152.828H287.75L288 155.422C287.75 155.526 287.323 155.672 286.719 155.859C286.135 156.047 285.479 156.224 284.75 156.391C284.042 156.578 283.302 156.734 282.531 156.859C281.781 156.984 281.115 157.047 280.531 157.047C279.677 157.047 279 156.922 278.5 156.672C278.021 156.443 277.656 156.161 277.406 155.828C277.177 155.474 277.031 155.099 276.969 154.703C276.927 154.286 276.906 153.922 276.906 153.609V152.547H276.812C276.229 153.047 275.479 153.568 274.562 154.109C273.667 154.63 272.688 155.109 271.625 155.547C270.583 155.984 269.5 156.338 268.375 156.609C267.25 156.901 266.188 157.047 265.188 157.047ZM266.594 152.891C267.385 152.891 268.219 152.797 269.094 152.609C269.99 152.422 270.875 152.172 271.75 151.859C272.625 151.547 273.469 151.193 274.281 150.797C275.094 150.401 275.823 149.995 276.469 149.578V129.984C275.844 129.838 274.979 129.682 273.875 129.516C272.792 129.349 271.615 129.266 270.344 129.266C268.135 129.266 266.365 129.588 265.031 130.234C263.698 130.859 262.667 131.755 261.938 132.922C261.229 134.068 260.75 135.443 260.5 137.047C260.271 138.651 260.156 140.411 260.156 142.328C260.156 143.953 260.24 145.422 260.406 146.734C260.573 148.026 260.885 149.13 261.344 150.047C261.823 150.963 262.479 151.672 263.312 152.172C264.167 152.651 265.26 152.891 266.594 152.891Z" fill="white"/>
<path d="M179.342 82.7323C179.016 83.4455 178.303 83.9141 177.508 83.9141H154.545V93.6415C154.545 94.7825 153.649 95.6791 152.508 95.6791H142.015C140.894 95.6791 139.977 94.7825 139.977 93.6415V83.9141H117.035C116.24 83.9141 115.527 83.4455 115.181 82.7323C114.855 82.0192 114.977 81.1635 115.487 80.5521L129.443 64.0688H118.135C117.341 64.0688 116.628 63.6002 116.281 62.887C115.955 62.1536 116.057 61.3181 116.587 60.7069L133.029 41.2692H125.959C125.165 41.2692 124.431 40.8006 124.105 40.0874C123.779 39.3743 123.881 38.5186 124.39 37.9073L134.578 25.8861H129.28C128.486 25.8861 127.773 25.4174 127.426 24.7043C127.1 23.9912 127.202 23.1354 127.732 22.5242L145.703 1.27306C146.497 0.356163 148.046 0.356163 148.82 1.27306L166.811 22.5242C167.321 23.1354 167.443 23.9912 167.117 24.7043C166.77 25.4174 166.057 25.8861 165.263 25.8861H159.965L170.153 37.9073C170.662 38.5186 170.764 39.3743 170.438 40.0874C170.091 40.8006 169.378 41.2692 168.584 41.2692H161.514L177.956 60.7069C178.466 61.3181 178.588 62.1536 178.262 62.887C177.916 63.6002 177.202 64.0688 176.408 64.0688H165.1L179.057 80.5521C179.566 81.1635 179.688 82.0192 179.342 82.7323Z" fill="white"/>
<path fill-rule="evenodd" clip-rule="evenodd" d="M162.057 32.221L158.864 35.9968C158.453 36.4703 158.375 37.1333 158.627 37.6858C158.895 38.2382 159.448 38.6014 160.064 38.6014H164.168L164.025 38.7692H167.606L162.057 32.221ZM160.071 43.435L156.275 47.9146C155.88 48.3882 155.802 49.0512 156.054 49.6036C156.307 50.1562 156.875 50.5192 157.491 50.5192H162.968L150.229 65.5783C149.819 66.0518 149.74 66.6991 149.993 67.2673C150.261 67.8199 150.813 68.1829 151.429 68.1829H160.19L149.377 80.9531C148.982 81.4267 148.888 82.0897 149.14 82.6421C149.409 83.1947 149.961 83.5577 150.577 83.5577H152.045V81.4141H176.511L159.707 61.5688H175.411L160.071 43.435ZM142.477 83.5577H144.427C145.043 83.5577 145.595 83.1947 145.848 82.6421C146.116 82.0897 146.022 81.4267 145.627 80.9531L134.814 68.1829H143.575C144.19 68.1829 144.743 67.8199 145.011 67.2673C145.264 66.6991 145.169 66.0518 144.774 65.5783L132.036 50.5192H137.513C138.129 50.5192 138.681 50.1562 138.95 49.6036C139.202 49.0512 139.123 48.3882 138.729 47.9146L134.702 43.163L119.132 61.5688H134.836L118.033 81.4141H142.477V83.5577ZM130.978 38.7692L130.836 38.6014H134.94C135.556 38.6014 136.108 38.2382 136.377 37.6858C136.629 37.1333 136.535 36.4703 136.14 35.9968L132.715 31.9512L126.937 38.7692H130.978ZM169.739 23.1365C169.879 24.0013 169.772 24.9081 169.391 25.7436L169.378 25.7704L169.365 25.7969C168.635 27.3 167.118 28.3477 165.36 28.3851L172.067 36.2989L172.073 36.307C173.214 37.6755 173.427 39.5613 172.711 41.1271L172.699 41.1534L172.687 41.1795C171.943 42.7111 170.383 43.7692 168.584 43.7692H166.903L179.871 59.0993L179.877 59.1064C180.989 60.441 181.263 62.2891 180.546 63.9023L180.529 63.941L180.511 63.9791C179.767 65.5108 178.206 66.5688 176.408 66.5688H170.492L180.971 78.9442L180.977 78.9518C182.025 80.2092 182.352 81.9812 181.71 83.5577H197.427C198.043 83.5577 198.595 83.1947 198.848 82.6421C199.116 82.0897 199.022 81.4267 198.627 80.9531L187.814 68.1829H196.575C197.19 68.1829 197.743 67.8199 198.011 67.2673C198.264 66.6991 198.169 66.0518 197.774 65.5783L185.036 50.5192H190.513C191.129 50.5192 191.681 50.1562 191.95 49.6036C192.202 49.0512 192.123 48.3882 191.729 47.9146L183.836 38.6014H187.94C188.556 38.6014 189.108 38.2382 189.377 37.6858C189.629 37.1333 189.535 36.4703 189.14 35.9968L175.202 19.5328C174.602 18.8224 173.402 18.8224 172.786 19.5328L169.739 23.1365ZM179.637 85.8795V91.0939C179.637 91.9779 178.943 92.6725 178.059 92.6725H169.929C169.061 92.6725 168.351 91.9779 168.351 91.0939V86.4141H177.508C178.271 86.4141 178.998 86.2225 179.637 85.8795ZM124.886 22.7038L122.202 19.5328C121.602 18.8224 120.402 18.8224 119.786 19.5328L105.864 35.9968C105.453 36.4703 105.375 37.1333 105.627 37.6858C105.895 38.2382 106.448 38.6014 107.064 38.6014H111.168L103.275 47.9146C102.88 48.3882 102.802 49.0512 103.054 49.6036C103.307 50.1562 103.875 50.5192 104.491 50.5192H109.968L97.2293 65.5783C96.8189 66.0518 96.7399 66.6991 96.9926 67.2673C97.2609 67.8199 97.8133 68.1829 98.429 68.1829H107.19L96.3769 80.9531C95.9823 81.4267 95.8876 82.0897 96.1401 82.6421C96.4085 83.1947 96.961 83.5577 97.5766 83.5577H112.816C112.197 81.9949 112.507 80.2221 113.566 78.9518L113.572 78.9442L124.051 66.5688H118.135C116.337 66.5688 114.776 65.5107 114.032 63.9791L114.014 63.9412L113.997 63.9026C113.301 62.3375 113.497 60.4658 114.686 59.0831L127.64 43.7692H125.959C124.199 43.7692 122.57 42.7414 121.831 41.1267C121.116 39.5611 121.329 37.6755 122.47 36.307L122.476 36.2989L129.183 28.3851C127.425 28.3477 125.908 27.3 125.178 25.7969L125.165 25.7704L125.153 25.7436C124.717 24.7903 124.624 23.7122 124.886 22.7038ZM115.351 86.0885C115.872 86.2985 116.441 86.4141 117.035 86.4141H126.637V91.0939C126.637 91.9779 125.943 92.6725 125.059 92.6725H116.929C116.061 92.6725 115.351 91.9779 115.351 91.0939V86.0885Z" fill="white"/>
<path d="M179.342 82.7323C179.016 83.4455 178.303 83.9141 177.508 83.9141H154.545V93.6415C154.545 94.7825 153.649 95.6791 152.508 95.6791H142.015C140.894 95.6791 139.977 94.7825 139.977 93.6415V83.9141H117.035C116.24 83.9141 115.527 83.4455 115.181 82.7323C114.855 82.0192 114.977 81.1635 115.487 80.5521L129.443 64.0688H118.135C117.341 64.0688 116.628 63.6002 116.281 62.887C115.955 62.1536 116.057 61.3181 116.587 60.7069L133.029 41.2692H125.959C125.165 41.2692 124.431 40.8006 124.105 40.0874C123.779 39.3743 123.881 38.5186 124.39 37.9073L134.578 25.8861H129.28C128.486 25.8861 127.773 25.4174 127.426 24.7043C127.1 23.9912 127.202 23.1354 127.732 22.5242L145.703 1.27306C146.497 0.356163 148.046 0.356163 148.82 1.27306L166.811 22.5242C167.321 23.1354 167.443 23.9912 167.117 24.7043C166.77 25.4174 166.057 25.8861 165.263 25.8861H159.965L170.153 37.9073C170.662 38.5186 170.764 39.3743 170.438 40.0874C170.091 40.8006 169.378 41.2692 168.584 41.2692H161.514L177.956 60.7069C178.466 61.3181 178.588 62.1536 178.262 62.887C177.916 63.6002 177.202 64.0688 176.408 64.0688H165.1L179.057 80.5521C179.566 81.1635 179.688 82.0192 179.342 82.7323Z" fill="white"/>
<path fill-rule="evenodd" clip-rule="evenodd" d="M162.057 32.221L158.864 35.9968C158.453 36.4703 158.375 37.1333 158.627 37.6858C158.895 38.2382 159.448 38.6014 160.064 38.6014H164.168L164.025 38.7692H167.606L162.057 32.221ZM160.071 43.435L156.275 47.9146C155.88 48.3882 155.802 49.0512 156.054 49.6036C156.307 50.1562 156.875 50.5192 157.491 50.5192H162.968L150.229 65.5783C149.819 66.0518 149.74 66.6991 149.993 67.2673C150.261 67.8199 150.813 68.1829 151.429 68.1829H160.19L149.377 80.9531C148.982 81.4267 148.888 82.0897 149.14 82.6421C149.409 83.1947 149.961 83.5577 150.577 83.5577H152.045V81.4141H176.511L159.707 61.5688H175.411L160.071 43.435ZM142.477 83.5577H144.427C145.043 83.5577 145.595 83.1947 145.848 82.6421C146.116 82.0897 146.022 81.4267 145.627 80.9531L134.814 68.1829H143.575C144.19 68.1829 144.743 67.8199 145.011 67.2673C145.264 66.6991 145.169 66.0518 144.774 65.5783L132.036 50.5192H137.513C138.129 50.5192 138.681 50.1562 138.95 49.6036C139.202 49.0512 139.123 48.3882 138.729 47.9146L134.702 43.163L119.132 61.5688H134.836L118.033 81.4141H142.477V83.5577ZM130.978 38.7692L130.836 38.6014H134.94C135.556 38.6014 136.108 38.2382 136.377 37.6858C136.629 37.1333 136.535 36.4703 136.14 35.9968L132.715 31.9512L126.937 38.7692H130.978ZM169.739 23.1365C169.879 24.0013 169.772 24.9081 169.391 25.7436L169.378 25.7704L169.365 25.7969C168.635 27.3 167.118 28.3477 165.36 28.3851L172.067 36.2989L172.073 36.307C173.214 37.6755 173.427 39.5613 172.711 41.1271L172.699 41.1534L172.687 41.1795C171.943 42.7111 170.383 43.7692 168.584 43.7692H166.903L179.871 59.0993L179.877 59.1064C180.989 60.441 181.263 62.2891 180.546 63.9023L180.529 63.941L180.511 63.9791C179.767 65.5108 178.206 66.5688 176.408 66.5688H170.492L180.971 78.9442L180.977 78.9518C182.025 80.2092 182.352 81.9813 181.71 83.5577H197.427C198.043 83.5577 198.595 83.1947 198.848 82.6421C199.116 82.0897 199.022 81.4267 198.627 80.9531L187.814 68.1829H196.575C197.19 68.1829 197.743 67.8199 198.011 67.2673C198.264 66.6991 198.169 66.0518 197.774 65.5783L185.036 50.5192H190.513C191.129 50.5192 191.681 50.1562 191.95 49.6036C192.202 49.0512 192.123 48.3882 191.729 47.9146L183.836 38.6014H187.94C188.556 38.6014 189.108 38.2382 189.377 37.6858C189.629 37.1333 189.535 36.4703 189.14 35.9968L175.202 19.5328C174.602 18.8224 173.402 18.8224 172.786 19.5328L169.739 23.1365ZM179.637 85.8795V91.0939C179.637 91.9779 178.943 92.6725 178.059 92.6725H169.929C169.061 92.6725 168.351 91.9779 168.351 91.0939V86.4141H177.508C178.271 86.4141 178.998 86.2225 179.637 85.8795ZM124.886 22.7038L122.202 19.5328C121.602 18.8224 120.402 18.8224 119.786 19.5328L105.864 35.9968C105.453 36.4703 105.375 37.1333 105.627 37.6858C105.895 38.2382 106.448 38.6014 107.064 38.6014H111.168L103.275 47.9146C102.88 48.3882 102.802 49.0512 103.054 49.6036C103.307 50.1562 103.875 50.5192 104.491 50.5192H109.968L97.2293 65.5783C96.8189 66.0518 96.7399 66.6991 96.9926 67.2673C97.2609 67.8199 97.8133 68.1829 98.429 68.1829H107.19L96.3769 80.9531C95.9823 81.4267 95.8876 82.0897 96.1401 82.6421C96.4085 83.1947 96.961 83.5577 97.5766 83.5577H112.816C112.197 81.9949 112.507 80.2221 113.566 78.9518L113.572 78.9442L124.051 66.5688H118.135C116.337 66.5688 114.776 65.5107 114.032 63.9791L114.014 63.9412L113.997 63.9026C113.301 62.3375 113.497 60.4658 114.686 59.0831L127.64 43.7692H125.959C124.199 43.7692 122.57 42.7414 121.831 41.1267C121.116 39.5611 121.329 37.6755 122.47 36.307L122.476 36.2989L129.183 28.3851C127.425 28.3477 125.908 27.3 125.178 25.7969L125.165 25.7704L125.153 25.7436C124.717 24.7903 124.624 23.7122 124.886 22.7038ZM115.351 86.0885C115.872 86.2985 116.441 86.4141 117.035 86.4141H126.637V91.0939C126.637 91.9779 125.943 92.6725 125.059 92.6725H116.929C116.061 92.6725 115.351 91.9779 115.351 91.0939V86.0885Z" fill="white"/>
</svg>
